<svg width="16" height="16" viewBox="0 0 16 16" fill="none" xmlns="http://www.w3.org/2000/svg">
<path d="M5.76 4.16C5.76 4.34987 5.7037 4.53548 5.59821 4.69335C5.49272 4.85122 5.34279 4.97426 5.16738 5.04692C4.99196 5.11958 4.79893 5.1386 4.61271 5.10155C4.42649 5.06451 4.25544 4.97308 4.12118 4.83882C3.98692 4.70456 3.89549 4.53351 3.85845 4.34729C3.8214 4.16107 3.84042 3.96804 3.91308 3.79262C3.98574 3.61721 4.10878 3.46728 4.26665 3.36179C4.42452 3.2563 4.61013 3.2 4.8 3.2C5.05461 3.2 5.29879 3.30114 5.47882 3.48118C5.65886 3.66121 5.76 3.90539 5.76 4.16V4.16ZM16 1.28V14.72C15.9996 15.0594 15.8646 15.3847 15.6247 15.6247C15.3847 15.8646 15.0594 15.9996 14.72 16H1.28C0.94064 15.9996 0.615288 15.8646 0.375324 15.6247C0.13536 15.3847 0.000381137 15.0594 0 14.72V1.28C0.000381137 0.94064 0.13536 0.615288 0.375324 0.375324C0.615288 0.13536 0.94064 0.000381137 1.28 0H14.72C15.0594 0.000381137 15.3847 0.13536 15.6247 0.375324C15.8646 0.615288 15.9996 0.94064 16 1.28V1.28ZM14.7208 14.72L14.72 1.28H1.28V14.72H14.72H14.7208ZM4.8 6.08C4.63026 6.08 4.46747 6.14743 4.34745 6.26745C4.22743 6.38747 4.16 6.55026 4.16 6.72V11.84C4.16 12.0097 4.22743 12.1725 4.34745 12.2925C4.46747 12.4126 4.63026 12.48 4.8 12.48C4.96974 12.48 5.13252 12.4126 5.25255 12.2925C5.37257 12.1725 5.44 12.0097 5.44 11.84V6.72C5.44 6.55026 5.37257 6.38747 5.25255 6.26745C5.13252 6.14743 4.96974 6.08 4.8 6.08ZM9.6 6.08C9.02337 6.07938 8.45999 6.25287 7.9836 6.57776C7.94872 6.42432 7.85851 6.28912 7.73022 6.198C7.60193 6.10689 7.44456 6.06625 7.2882 6.08385C7.13183 6.10145 6.98743 6.17606 6.88261 6.29342C6.77779 6.41077 6.7199 6.56265 6.72 6.72V11.84C6.72 12.0097 6.78743 12.1725 6.90745 12.2925C7.02747 12.4126 7.19026 12.48 7.36 12.48C7.52974 12.48 7.69252 12.4126 7.81255 12.2925C7.93257 12.1725 8 12.0097 8 11.84V8.96C8 8.53565 8.16857 8.12869 8.46863 7.82863C8.76869 7.52857 9.17565 7.36 9.6 7.36C10.0243 7.36 10.4313 7.52857 10.7314 7.82863C11.0314 8.12869 11.2 8.53565 11.2 8.96V11.84C11.2 12.0097 11.2674 12.1725 11.3875 12.2925C11.5075 12.4126 11.6703 12.48 11.84 12.48C12.0097 12.48 12.1725 12.4126 12.2925 12.2925C12.4126 12.1725 12.48 12.0097 12.48 11.84V8.96C12.4792 8.19644 12.1755 7.46439 11.6355 6.92447C11.0956 6.38455 10.3636 6.08085 9.6 6.08V6.08Z" fill="white"/>
</svg>
